<?xml version="1.0" encoding="UTF-8"?>
<svg width="1200pt" height="1200pt" version="1.1" viewBox="0 0 1200 1200" xmlns="http://www.w3.org/2000/svg">
 <path d="m600 525c102.9 0 195.19-65.305 229.59-162.49 1.4453-4.0508 1.4453-8.4766 0-12.523-34.406-97.184-126.7-162.49-229.59-162.49s-195.19 65.305-229.59 162.49c-1.4453 4.0508-1.4453 8.4766 0 12.523 34.406 97.184 126.7 162.49 229.59 162.49zm0-281.25c62.043 0 112.5 50.457 112.5 112.5s-50.457 112.5-112.5 112.5-112.5-50.457-112.5-112.5 50.457-112.5 112.5-112.5zm191.91 112.5c-15.508 39.711-42.602 72.695-76.5 95.68 21.582-25.984 34.594-59.344 34.594-95.68s-13.012-69.695-34.594-95.68c33.898 22.984 60.992 55.969 76.5 95.68zm-307.31-95.68c-21.582 25.984-34.594 59.344-34.594 95.68s13.012 69.695 34.594 95.68c-33.898-22.988-60.992-55.988-76.5-95.68 15.508-39.711 42.602-72.695 76.5-95.68z" fill="#ff001b"/>
 <path d="m600 431.25c41.363 0 75-33.637 75-75s-33.637-75-75-75c-1.9297 0-3.7891 0.20703-6.6016 0.5625-6.3359 0.5625-11.945 4.293-14.906 9.918-2.9805 5.625-2.8867 12.355 0.22656 17.906 1.668 3.0195 2.5312 6.0742 2.5312 9.1133 0 13.367-14.664 23.605-27.805 16.219-5.418-3.0195-12.094-2.3047-17.645 0.46875s-9.5078 9.0195-10.352 15.188c-0.24219 1.8555-0.44922 3.6953-0.44922 5.625 0 41.363 33.637 75 75 75zm18.523-107.59c11.328 6.4492 18.977 18.637 18.977 32.586 0 20.68-16.82 37.5-37.5 37.5-13.855 0-26.008-7.5547-32.457-18.977 27.039-2.418 48.637-24.055 50.98-51.109z" fill="#ff001b"/>
 <path d="m311.57 673.57c7.0117 2.8867 15.055 1.3125 20.438-4.0703l69.504-69.504h115.73l69.508 69.508c7.332 7.332 19.18 7.332 26.512 0l69.504-69.508h115.73l69.508 69.508c3.5781 3.5781 8.3789 5.4922 13.254 5.4922 2.418 0 4.8555-0.46875 7.1797-1.4258 7.0156-2.9062 11.57-9.75 11.57-17.324v-56.25h18.75c10.367 0 18.75-8.3984 18.75-18.75v-431.25c0-10.352-8.3828-18.75-18.75-18.75h-637.5c-10.367 0-18.75 8.3984-18.75 18.75v431.25c0 10.352 8.3828 18.75 18.75 18.75h18.75v56.25c0 7.5742 4.5547 14.418 11.57 17.324zm-11.57-504.82h600v393.75h-18.75c-10.367 0-18.75 8.3984-18.75 18.75v29.738l-42.992-42.992c-3.5078-3.5273-8.2695-5.4961-13.258-5.4961h-131.25c-4.9883 0-9.75 1.9688-13.258 5.4922l-61.742 61.746-61.742-61.742c-3.5078-3.5273-8.2695-5.4961-13.258-5.4961h-131.25c-4.9883 0-9.75 1.9688-13.258 5.4922l-42.992 42.996v-29.738c0-10.352-8.3828-18.75-18.75-18.75h-18.75z" fill="#ff001b"/>
 <path d="m525 1050v-91.406c0-10.352-8.3828-18.75-18.75-18.75s-18.75 8.3984-18.75 18.75v91.406c0 10.352 8.3828 18.75 18.75 18.75s18.75-8.3984 18.75-18.75z" fill="#ff001b"/>
 <path d="m712.5 1050v-91.406c0-10.352-8.3828-18.75-18.75-18.75s-18.75 8.3984-18.75 18.75v91.406c0 10.352 8.3828 18.75 18.75 18.75s18.75-8.3984 18.75-18.75z" fill="#ff001b"/>
 <path d="m975 862.5h-0.48828c11.906-15.711 19.238-35.062 19.238-56.25v-18.75c0-51.695-42.055-93.75-93.75-93.75s-93.75 42.055-93.75 93.75v18.75c0 21.188 7.332 40.539 19.238 56.25h-0.48828c-30.77 0-57.898 15.113-75 38.082-17.102-22.969-44.23-38.082-75-38.082h-0.48828c11.906-15.711 19.238-35.062 19.238-56.25v-18.75c0-51.695-42.055-93.75-93.75-93.75s-93.75 42.055-93.75 93.75v18.75c0 21.188 7.332 40.539 19.238 56.25h-0.48828c-30.77 0-57.898 15.113-75 38.082-17.102-22.969-44.23-38.082-75-38.082h-0.48828c11.906-15.711 19.238-35.062 19.238-56.25v-18.75c0-51.695-42.055-93.75-93.75-93.75s-93.75 42.055-93.75 93.75v18.75c0 21.188 7.332 40.539 19.238 56.25h-0.48828c-51.695 0-93.75 42.055-93.75 93.75v93.75c0 10.352 8.3828 18.75 18.75 18.75s18.75-8.3984 18.75-18.75v-93.75c0-31.012 25.238-56.25 56.25-56.25h150c31.012 0 56.25 25.238 56.25 56.25v93.75c0 10.352 8.3828 18.75 18.75 18.75s18.75-8.3984 18.75-18.75v-93.75c0-31.012 25.238-56.25 56.25-56.25h150c31.012 0 56.25 25.238 56.25 56.25v93.75c0 10.352 8.3828 18.75 18.75 18.75s18.75-8.3984 18.75-18.75v-93.75c0-31.012 25.238-56.25 56.25-56.25h150c31.012 0 56.25 25.238 56.25 56.25v93.75c0 10.352 8.3828 18.75 18.75 18.75s18.75-8.3984 18.75-18.75v-93.75c0-51.695-42.055-93.75-93.75-93.75zm-731.25-56.25v-18.75c0-31.012 25.238-56.25 56.25-56.25s56.25 25.238 56.25 56.25v18.75c0 31.012-25.238 56.25-56.25 56.25s-56.25-25.238-56.25-56.25zm300 0v-18.75c0-31.012 25.238-56.25 56.25-56.25s56.25 25.238 56.25 56.25v18.75c0 31.012-25.238 56.25-56.25 56.25s-56.25-25.238-56.25-56.25zm300 0v-18.75c0-31.012 25.238-56.25 56.25-56.25s56.25 25.238 56.25 56.25v18.75c0 31.012-25.238 56.25-56.25 56.25s-56.25-25.238-56.25-56.25z" fill="#ff001b"/>
 <path d="m825 1050v-91.406c0-10.352-8.3828-18.75-18.75-18.75s-18.75 8.3984-18.75 18.75v91.406c0 10.352 8.3828 18.75 18.75 18.75s18.75-8.3984 18.75-18.75z" fill="#ff001b"/>
 <path d="m1012.5 1050v-91.406c0-10.352-8.3828-18.75-18.75-18.75s-18.75 8.3984-18.75 18.75v91.406c0 10.352 8.3828 18.75 18.75 18.75s18.75-8.3984 18.75-18.75z" fill="#ff001b"/>
 <path d="m225 1050v-91.406c0-10.352-8.3828-18.75-18.75-18.75s-18.75 8.3984-18.75 18.75v91.406c0 10.352 8.3828 18.75 18.75 18.75s18.75-8.3984 18.75-18.75z" fill="#ff001b"/>
 <path d="m412.5 1050v-91.406c0-10.352-8.3828-18.75-18.75-18.75s-18.75 8.3984-18.75 18.75v91.406c0 10.352 8.3828 18.75 18.75 18.75s18.75-8.3984 18.75-18.75z" fill="#ff001b"/>
 <path d="m881.25 262.5c0 10.355-8.3945 18.75-18.75 18.75s-18.75-8.3945-18.75-18.75 8.3945-18.75 18.75-18.75 18.75 8.3945 18.75 18.75" fill="#ff001b"/>
 <path d="m862.5 468.75c10.312 0 18.75-8.4375 18.75-18.75v-112.5c0-10.312-8.4375-18.75-18.75-18.75s-18.75 8.4375-18.75 18.75v112.5c0 10.312 8.4375 18.75 18.75 18.75z" fill="#ff001b"/>
</svg>
