<?xml version="1.0" encoding="UTF-8"?>
<svg width="1200pt" height="1200pt" version="1.1" viewBox="0 0 1200 1200" xmlns="http://www.w3.org/2000/svg">
 <path d="m600 431.25c-102.92 0-195.19 65.305-229.61 162.49-1.4258 4.0508-1.4258 8.4766 0 12.523 34.426 97.184 126.7 162.49 229.61 162.49s195.19-65.305 229.61-162.49c1.4258-4.0508 1.4258-8.4766 0-12.523-34.426-97.184-126.7-162.49-229.61-162.49zm0 281.25c-62.043 0-112.5-50.457-112.5-112.5s50.457-112.5 112.5-112.5 112.5 50.457 112.5 112.5-50.457 112.5-112.5 112.5zm-191.93-112.5c15.523-39.695 42.617-72.695 76.52-95.68-21.582 25.984-34.594 59.344-34.594 95.68s13.012 69.695 34.594 95.68c-33.898-22.984-60.992-55.984-76.52-95.68zm307.33 95.68c21.582-25.984 34.594-59.344 34.594-95.68s-13.012-69.695-34.594-95.68c33.898 22.988 60.992 55.988 76.52 95.68-15.527 39.695-42.621 72.695-76.52 95.68z" fill="#ff001b"/>
 <path d="m600 525c-1.9297 0-3.7695 0.1875-6.582 0.5625-6.3359 0.5625-11.961 4.293-14.926 9.918-2.9805 5.625-2.8867 12.395 0.22656 17.945 1.6875 3 2.5312 6.0352 2.5312 9.0742 0 13.367-14.586 23.645-27.824 16.219-5.418-3.0391-12.094-2.3242-17.645 0.46875-5.5703 2.7734-9.4883 9.0195-10.332 15.188-0.26172 1.8555-0.44922 3.6953-0.44922 5.625 0 41.363 33.637 75 75 75s75-33.637 75-75-33.637-75-75-75zm0 112.5c-13.875 0-26.008-7.5547-32.457-18.977 27.039-2.418 48.637-24.055 51-51.133 11.309 6.4727 18.957 18.66 18.957 32.609 0 20.68-16.82 37.5-37.5 37.5z" fill="#ff001b"/>
 <path d="m1012.5 506.25h-15.711c-8.2695 0-15.602-5.4922-17.832-13.352-8.3242-29.457-20.211-58.031-35.305-84.938-4.0312-7.1797-2.7383-16.293 3.1133-22.145l11.211-11.195c10.633-10.633 16.48-24.75 16.48-39.789 0-15.039-5.8516-29.156-16.48-39.77l-53.023-53.043c-21.262-21.262-58.312-21.262-79.555 0l-11.211 11.195c-5.8516 5.8672-14.961 7.125-22.145 3.1133-26.906-15.094-55.461-26.961-84.938-35.305-7.8633-2.2109-13.355-9.543-13.355-17.812v-15.711c0-31.012-25.238-56.25-56.25-56.25h-75c-31.012 0-56.25 25.238-56.25 56.25v15.711c0 8.2695-5.4922 15.602-13.352 17.832-29.457 8.3242-58.031 20.211-84.938 35.305-7.1797 4.0312-16.273 2.7383-22.145-3.1133l-11.195-11.211c-21.262-21.262-58.312-21.262-79.555 0l-53.043 53.023c-10.633 10.633-16.48 24.75-16.48 39.789 0 15.039 5.8516 29.156 16.48 39.77l11.195 11.211c5.8672 5.8672 7.1445 14.961 3.1133 22.145-15.094 26.906-26.961 55.461-35.305 84.938-2.2148 7.8594-9.5469 13.352-17.816 13.352h-15.711c-31.012 0-56.25 25.238-56.25 56.25v75c0 31.012 25.238 56.25 56.25 56.25h15.711c8.2695 0 15.602 5.4922 17.832 13.352 8.3242 29.457 20.211 58.031 35.305 84.938 4.0312 7.1797 2.7383 16.293-3.1133 22.145l-11.211 11.195c-10.633 10.633-16.48 24.75-16.48 39.789 0 15.039 5.8516 29.156 16.48 39.77l53.023 53.043c21.262 21.262 58.312 21.262 79.555 0l11.211-11.195c5.8516-5.8672 14.961-7.125 22.145-3.1133 26.906 15.094 55.461 26.961 84.938 35.305 7.8633 2.2109 13.355 9.543 13.355 17.812v15.711c0 31.012 25.238 56.25 56.25 56.25h75c31.012 0 56.25-25.238 56.25-56.25v-15.711c0-8.2695 5.4922-15.602 13.352-17.832 29.457-8.3242 58.031-20.211 84.938-35.305 7.1797-4.0312 16.273-2.7578 22.145 3.1133l11.195 11.211c21.262 21.262 58.312 21.262 79.555 0l53.043-53.023c10.633-10.633 16.48-24.75 16.48-39.789 0-15.039-5.8516-29.156-16.48-39.77l-11.195-11.211c-5.8672-5.8672-7.1445-14.961-3.1133-22.145 15.094-26.906 26.961-55.461 35.305-84.938 2.2148-7.8594 9.5469-13.352 17.816-13.352h15.711c31.012 0 56.25-25.238 56.25-56.25v-75c0-31.012-25.238-56.25-56.25-56.25zm18.75 131.25c0 10.332-8.418 18.75-18.75 18.75h-15.711c-24.977 0-47.137 16.727-53.906 40.648-7.5195 26.605-18.262 52.445-31.914 76.781-12.207 21.75-8.3984 49.312 9.3008 67.012l11.211 11.211c3.543 3.5234 5.4922 8.2305 5.4922 13.258 0 5.0234-1.9492 9.7109-5.4922 13.258l-53.043 53.043c-7.0703 7.0859-19.426 7.0859-26.512 0l-11.211-11.211c-17.719-17.68-45.262-21.488-67.012-9.2812-24.336 13.648-50.176 24.395-76.781 31.914-23.945 6.7656-40.672 28.93-40.672 53.906v15.711c0 10.332-8.418 18.75-18.75 18.75h-75c-10.332 0-18.75-8.418-18.75-18.75v-15.711c0-24.977-16.727-47.137-40.648-53.906-26.605-7.5195-52.445-18.262-76.781-31.914-8.5117-4.7812-17.906-7.1055-27.262-7.1055-14.531 0-28.969 5.625-39.75 16.406l-11.211 11.211c-7.0703 7.0859-19.426 7.0859-26.512 0l-53.043-53.043c-3.543-3.5234-5.4922-8.2305-5.4922-13.258 0-5.0234 1.9492-9.7109 5.4922-13.258l11.211-11.211c17.68-17.699 21.488-45.262 9.2812-67.012-13.648-24.336-24.395-50.176-31.914-76.781-6.7695-23.941-28.934-40.668-53.91-40.668h-15.711c-10.332 0-18.75-8.418-18.75-18.75v-75c0-10.332 8.418-18.75 18.75-18.75h15.711c24.977 0 47.137-16.727 53.906-40.648 7.5195-26.605 18.262-52.445 31.914-76.781 12.207-21.75 8.3984-49.312-9.3008-67.012l-11.211-11.211c-3.543-3.5234-5.4922-8.2305-5.4922-13.258 0-5.0234 1.9492-9.7109 5.4922-13.258l53.043-53.043c7.0703-7.0859 19.426-7.0859 26.512 0l11.211 11.211c17.719 17.68 45.262 21.488 67.012 9.2812 24.336-13.648 50.176-24.395 76.781-31.914 23.945-6.7656 40.672-28.93 40.672-53.906v-15.711c0-10.332 8.418-18.75 18.75-18.75h75c10.332 0 18.75 8.418 18.75 18.75v15.711c0 24.977 16.727 47.137 40.648 53.906 26.605 7.5195 52.445 18.262 76.781 31.914 21.75 12.207 49.293 8.3984 67.012-9.3008l11.211-11.211c7.0703-7.0859 19.426-7.0859 26.512 0l53.043 53.043c3.543 3.5234 5.4922 8.2305 5.4922 13.258 0 5.0234-1.9492 9.7109-5.4922 13.258l-11.211 11.211c-17.68 17.699-21.488 45.262-9.2812 67.012 13.648 24.336 24.395 50.176 31.914 76.781 6.7695 23.941 28.934 40.668 53.91 40.668h15.711c10.332 0 18.75 8.418 18.75 18.75z" fill="#ff001b"/>
 <path d="m600 318.75c-155.08 0-281.25 126.17-281.25 281.25s126.17 281.25 281.25 281.25 281.25-126.17 281.25-281.25-126.17-281.25-281.25-281.25zm0 525c-134.4 0-243.75-109.35-243.75-243.75s109.35-243.75 243.75-243.75 243.75 109.35 243.75 243.75-109.35 243.75-243.75 243.75z" fill="#ff001b"/>
</svg>
