<?xml version="1.0" encoding="UTF-8"?>
<svg width="1200pt" height="1200pt" version="1.1" viewBox="0 0 1200 1200" xmlns="http://www.w3.org/2000/svg">
 <path d="m600 431.25c-102.92 0-195.19 65.305-229.61 162.49-1.4258 4.0508-1.4258 8.4766 0 12.523 34.426 97.184 126.7 162.49 229.61 162.49s195.19-65.305 229.61-162.49c1.4258-4.0508 1.4258-8.4766 0-12.523-34.426-97.184-126.7-162.49-229.61-162.49zm0 281.25c-62.043 0-112.5-50.457-112.5-112.5s50.457-112.5 112.5-112.5 112.5 50.457 112.5 112.5-50.457 112.5-112.5 112.5zm-191.93-112.5c15.523-39.695 42.617-72.695 76.52-95.68-21.582 25.984-34.594 59.344-34.594 95.68s13.012 69.695 34.594 95.68c-33.898-22.984-60.992-55.984-76.52-95.68zm307.33 95.68c21.582-25.984 34.594-59.344 34.594-95.68s-13.012-69.695-34.594-95.68c33.898 22.988 60.992 55.988 76.52 95.68-15.527 39.695-42.621 72.695-76.52 95.68z" fill="#ff001b"/>
 <path d="m600 525c-1.9297 0-3.7695 0.1875-6.582 0.5625-6.3359 0.5625-11.961 4.293-14.926 9.918-2.9805 5.625-2.8867 12.395 0.22656 17.945 1.6875 3 2.5312 6.0352 2.5312 9.0742 0 13.367-14.586 23.645-27.824 16.219-5.4375-3.0547-12.113-2.3047-17.645 0.46875-5.5703 2.7734-9.4883 9.0195-10.332 15.188-0.26172 1.8555-0.44922 3.6953-0.44922 5.625 0 41.363 33.637 75 75 75s75-33.637 75-75-33.637-75-75-75zm0 112.5c-13.875 0-26.008-7.5547-32.457-18.977 27.039-2.418 48.637-24.055 51-51.133 11.309 6.4727 18.957 18.66 18.957 32.609 0 20.68-16.82 37.5-37.5 37.5z" fill="#ff001b"/>
 <path d="m150 1068.8h309.38c25.836 0 46.875-21.039 46.875-46.875 0-3.207-0.33594-6.3359-0.95703-9.375h29.082c25.836 0 46.875-21.039 46.875-46.875 0-10.594-3.6562-20.27-9.6172-28.125 5.9609-7.8555 9.6172-17.531 9.6172-28.125s-3.6562-20.27-9.6172-28.125c5.9609-7.8555 9.6172-17.531 9.6172-28.125 0-25.836-21.039-46.875-46.875-46.875h-189.11l5.5508-5.5508c17.625-17.605 17.625-46.293-0.11328-64.012-17.605-17.605-46.293-17.605-63.898 0l-69.562 69.562h-67.238c-10.352 0-18.75 8.3984-18.75 18.75v225c0 10.352 8.3984 18.75 18.75 18.75zm18.75-225h56.25c4.9688 0 9.75-1.9688 13.258-5.4922l75.055-75.055c2.9805-3 7.8555-3 10.988 0.11328 1.9492 1.9492 2.25 4.2578 2.25 5.4375 0 1.1797-0.30078 3.4883-2.25 5.4375l-37.555 37.555c-5.3633 5.3633-6.9766 13.426-4.0703 20.438 2.9062 6.9922 9.75 11.566 17.324 11.566h234.38c5.1758 0 9.375 4.1992 9.375 9.375s-4.1992 9.375-9.375 9.375h-121.88c-10.352 0-18.75 8.3984-18.75 18.75s8.3984 18.75 18.75 18.75h121.88c5.1758 0 9.375 4.1992 9.375 9.375s-4.1992 9.375-9.375 9.375h-121.88c-10.352 0-18.75 8.3984-18.75 18.75s8.3984 18.75 18.75 18.75h121.88c5.1758 0 9.375 4.1992 9.375 9.375s-4.1992 9.375-9.375 9.375h-140.62c-10.352 0-18.75 8.3984-18.75 18.75s8.3984 18.75 18.75 18.75h65.625c5.1758 0 9.375 4.1992 9.375 9.375s-4.1992 9.375-9.375 9.375h-290.62z" fill="#ff001b"/>
 <path d="m1050 131.25h-309.38c-25.836 0-46.875 21.039-46.875 46.875 0 3.207 0.33594 6.3359 0.95703 9.375h-29.082c-25.836 0-46.875 21.039-46.875 46.875 0 10.594 3.6562 20.27 9.6172 28.125-5.9609 7.8555-9.6172 17.531-9.6172 28.125s3.6562 20.27 9.6172 28.125c-5.9609 7.8555-9.6172 17.531-9.6172 28.125 0 25.836 21.039 46.875 46.875 46.875h189.11l-5.5508 5.5508c-17.625 17.605-17.625 46.293 0.11328 64.012 8.8125 8.8125 20.383 13.219 31.949 13.219 11.57 0 23.137-4.4062 31.949-13.219l69.562-69.562h67.238c10.352 0 18.75-8.3984 18.75-18.75v-225c0-10.352-8.3984-18.75-18.75-18.75zm-18.75 225h-56.25c-4.9688 0-9.75 1.9688-13.258 5.4922l-75.055 75.055c-2.9805 2.9805-7.875 3-10.988-0.11328-1.9492-1.9492-2.25-4.2578-2.25-5.4375 0-1.1797 0.30078-3.4883 2.25-5.4375l37.555-37.555c5.3633-5.3633 6.9766-13.426 4.0703-20.438-2.9062-6.9922-9.75-11.566-17.324-11.566h-234.38c-5.1758 0-9.375-4.1992-9.375-9.375s4.1992-9.375 9.375-9.375h121.88c10.352 0 18.75-8.3984 18.75-18.75s-8.3984-18.75-18.75-18.75h-121.88c-5.1758 0-9.375-4.1992-9.375-9.375s4.1992-9.375 9.375-9.375h121.88c10.352 0 18.75-8.3984 18.75-18.75s-8.3984-18.75-18.75-18.75h-121.88c-5.1758 0-9.375-4.1992-9.375-9.375s4.1992-9.375 9.375-9.375h140.62c10.352 0 18.75-8.3984 18.75-18.75s-8.3984-18.75-18.75-18.75h-65.625c-5.1758 0-9.375-4.1992-9.375-9.375s4.1992-9.375 9.375-9.375h290.62z" fill="#ff001b"/>
 <path d="m281.25 487.5h56.25c10.352 0 18.75-8.3984 18.75-18.75v-112.5h112.5c10.352 0 18.75-8.3984 18.75-18.75v-56.25c0-10.352-8.3984-18.75-18.75-18.75h-187.5c-10.352 0-18.75 8.3984-18.75 18.75v187.5c0 10.352 8.3984 18.75 18.75 18.75zm18.75-187.5h150v18.75h-112.5c-10.352 0-18.75 8.3984-18.75 18.75v112.5h-18.75z" fill="#ff001b"/>
 <path d="m712.5 862.5v56.25c0 10.352 8.3984 18.75 18.75 18.75h187.5c10.352 0 18.75-8.3984 18.75-18.75v-187.5c0-10.352-8.3984-18.75-18.75-18.75h-56.25c-10.352 0-18.75 8.3984-18.75 18.75v112.5h-112.5c-10.352 0-18.75 8.3984-18.75 18.75zm37.5 18.75h112.5c10.352 0 18.75-8.3984 18.75-18.75v-112.5h18.75v150h-150z" fill="#ff001b"/>
</svg>
